<svg width="20" height="20" viewBox="0 0 20 20" xmlns="http://www.w3.org/2000/svg">
<path fill-rule="evenodd" clip-rule="evenodd" d="M0.321575 0.064166C0.251047 0.0989671 0.15434 0.182138 0.106671 0.249003L0.0200056 0.370611L0.0100028 9.97388L0 19.5772L0.0881498 19.7068C0.13664 19.7781 0.225923 19.8732 0.286604 19.9182L0.396948 20H7.46351H14.5301L14.6404 19.9182C14.7011 19.8732 14.7903 19.7782 14.8386 19.7071L14.9265 19.5779V17.5886V15.5994L15.289 15.6249C15.9722 15.673 16.7837 15.5218 17.4188 15.2281C18.3163 14.8131 19.1122 14.0315 19.5674 13.118C19.7232 12.8054 19.8765 12.3096 19.9526 11.872C19.9976 11.6132 20.0089 11.3801 19.9935 11.026C19.9819 10.7572 19.9437 10.4053 19.9086 10.244C19.8146 9.81121 19.5424 9.1704 19.2845 8.77434C18.7502 7.95401 17.908 7.29545 16.9974 6.98611C16.4974 6.81625 16.0752 6.75661 15.4713 6.77073L14.9278 6.7834L14.9174 3.57008C14.9071 0.38981 14.9062 0.355635 14.8261 0.246383C14.7816 0.185657 14.6849 0.105224 14.6112 0.0676461C14.4851 0.00328364 14.0647 -0.000704802 7.46351 7.72451e-05C1.08253 0.000859292 0.438248 0.00660734 0.321575 0.064166ZM13.7542 4.15377L13.7541 7.13532L13.504 7.26471C13.1088 7.46922 12.6688 7.81398 12.3061 8.20332L11.9714 8.56256H7.51899C3.26053 8.56256 3.06059 8.56573 2.93036 8.63498C2.85549 8.67478 2.75312 8.76714 2.70283 8.84026C2.6264 8.95143 2.61406 9.01016 2.62734 9.19997C2.64129 9.39931 2.66071 9.44432 2.78774 9.57144L2.93227 9.71608L7.15158 9.72636C9.47216 9.73203 11.3709 9.74208 11.3709 9.74873C11.3709 9.75538 11.3455 9.8387 11.3146 9.93396C11.2836 10.0292 11.2384 10.2083 11.2141 10.3319L11.1699 10.5568L7.0993 10.5569C3.10638 10.5571 3.02624 10.5585 2.90133 10.6348C2.72194 10.7442 2.61871 10.9313 2.61855 11.1473C2.61835 11.3676 2.73796 11.5639 2.93176 11.6613C3.0586 11.7251 3.34012 11.7297 7.12162 11.7298L11.1755 11.7298L11.1758 11.8178C11.176 11.8662 11.2087 12.0422 11.2486 12.2089L11.321 12.5119L7.21391 12.5128C3.29433 12.5136 3.09951 12.5169 2.94681 12.5863C2.73761 12.6814 2.61839 12.8739 2.61839 13.1166C2.61839 13.3407 2.70733 13.5041 2.89191 13.6192L3.02867 13.7045L7.46835 13.7151L11.908 13.7257L12.1399 14.0084C12.5097 14.4591 13.0448 14.8913 13.5492 15.1465L13.7543 15.2504V17.0289V18.8074H7.46351H1.17267V9.98979V1.17221H7.46351H13.7543L13.7542 4.15377ZM3.34028 2.0336C3.27526 2.05323 3.16179 2.13147 3.08814 2.20752C2.96912 2.33042 2.95239 2.3741 2.93802 2.59972L2.92188 2.85361H2.72663C2.48984 2.85361 2.27048 2.96603 2.1678 3.14C2.06879 3.30775 2.07172 3.60418 2.1737 3.74092C2.31542 3.93088 2.44721 4.00107 2.69603 4.01906L2.93098 4.03607L2.93114 4.23666C2.93137 4.59793 3.17226 4.8474 3.52107 4.84768C3.86054 4.84795 4.10299 4.58334 4.10311 4.21242L4.10319 4.02668L4.28879 4.0266C4.65944 4.02649 4.92385 3.78386 4.92357 3.44414C4.9233 3.09507 4.67401 2.854 4.31301 2.85377L4.11257 2.85361L4.09557 2.61849C4.07779 2.37226 4.00554 2.23411 3.82725 2.10535C3.70733 2.01874 3.49395 1.9873 3.34028 2.0336ZM8.65525 4.44574C8.40166 4.51128 8.18039 4.84799 8.22712 5.09731C8.26291 5.28816 8.37857 5.45916 8.52654 5.53998C8.64474 5.60458 8.79103 5.61033 10.3159 5.61033C11.9062 5.61033 11.9821 5.60701 12.1092 5.53212C12.3001 5.41959 12.3952 5.27166 12.4153 5.05601C12.4294 4.90383 12.4151 4.84165 12.3414 4.73412C12.2912 4.66084 12.2004 4.56407 12.1397 4.51906C12.0323 4.43933 11.9878 4.4371 10.3814 4.43139C9.47501 4.42819 8.69823 4.43464 8.65525 4.44574ZM3.04113 6.76248C2.7723 6.84526 2.61902 7.0498 2.61867 7.32622C2.61832 7.57526 2.73522 7.76632 2.94681 7.86247C3.09669 7.93058 3.24673 7.93524 5.31595 7.93606L7.52509 7.93692L7.69854 7.84894C7.90816 7.74262 8.02355 7.55868 8.02355 7.33083C8.02355 7.12304 7.91281 6.92804 7.73566 6.82387C7.60417 6.7466 7.53615 6.7441 5.37308 6.73726C4.14812 6.73339 3.09872 6.74473 3.04113 6.76248ZM16.3918 8.03644C16.6929 8.11867 17.1208 8.31649 17.3908 8.49827C17.8725 8.82259 18.339 9.39118 18.565 9.92946C18.7466 10.3622 18.8067 10.6813 18.8047 11.202C18.8024 11.7735 18.7164 12.1407 18.4657 12.6488C18.1705 13.247 17.7384 13.6983 17.1342 14.0393C16.2412 14.5434 15.0509 14.5701 14.1269 14.1068C13.6102 13.8478 13.1904 13.4765 12.8569 12.9836C12.4855 12.4349 12.2795 11.6733 12.322 11.0065C12.3789 10.1141 12.8261 9.23031 13.4958 8.68647C13.9178 8.34386 14.5071 8.06873 15.014 7.9777C15.3039 7.92562 16.1121 7.96007 16.3918 8.03644ZM17.3491 9.58329C17.2954 9.60432 16.7728 10.0997 16.1878 10.6841L15.1241 11.7466L15.0156 11.6479C14.9559 11.5935 14.6862 11.346 14.4163 11.0978C14.1464 10.8496 13.8789 10.616 13.8219 10.5786C13.6814 10.4865 13.4035 10.4871 13.245 10.58C13.0588 10.6891 12.9641 10.8385 12.9457 11.0524C12.9335 11.1936 12.949 11.2721 13.0069 11.3645C13.0959 11.5061 14.7261 13.0127 14.8773 13.093C14.9414 13.1271 15.0542 13.1399 15.1905 13.1285L15.4034 13.1109L16.767 11.7447L18.1306 10.3785V10.1606C18.1306 9.99914 18.1076 9.90827 18.0419 9.80984C17.8894 9.58137 17.5977 9.486 17.3491 9.58329ZM2.90133 14.5841C2.72323 14.6928 2.61867 14.8809 2.61867 15.0927C2.61867 15.3044 2.72323 15.4926 2.90133 15.6012C3.02644 15.6775 3.10724 15.6789 7.49668 15.679C11.5383 15.6792 11.9774 15.6731 12.0984 15.6157C12.1719 15.5808 12.2712 15.4972 12.3192 15.43C12.3839 15.3391 12.4063 15.2525 12.4063 15.0927C12.4063 14.9328 12.3839 14.8462 12.3192 14.7553C12.2712 14.6881 12.1719 14.6045 12.0984 14.5696C11.9774 14.5122 11.5383 14.5061 7.49668 14.5063C3.10724 14.5064 3.02644 14.5078 2.90133 14.5841ZM9.18399 16.5718C9.01711 16.6621 8.91017 16.8008 8.87348 16.9744C8.8285 17.1872 8.88922 17.3652 9.06197 17.5268L9.21881 17.6734H10.6212C12.0141 17.6734 12.0244 17.6728 12.1563 17.5846C12.3165 17.4776 12.4257 17.2742 12.4258 17.0829C12.4258 16.9245 12.3083 16.7267 12.1397 16.6017C12.0336 16.5229 11.9794 16.5195 10.6745 16.5092C9.41195 16.4992 9.31024 16.5035 9.18399 16.5718Z" />
</svg>
