<svg width="20" height="20" viewBox="0 0 20 20" xmlns="http://www.w3.org/2000/svg">
<path fill-rule="evenodd" clip-rule="evenodd" d="M3.8757 0.0520533C3.8052 0.0880474 3.70852 0.17219 3.66086 0.239019C3.58699 0.342664 3.57227 0.422273 3.56102 0.779439L3.54785 1.19831L1.95945 1.20934C0.387578 1.22024 0.369844 1.22126 0.248945 1.30751C0.181797 1.35546 0.0982812 1.45485 0.0633984 1.52836C0.00554688 1.65033 0 2.34372 0 9.42748C0 16.5112 0.00554688 17.2046 0.0633984 17.3266C0.0982812 17.4001 0.181797 17.4995 0.248945 17.5474L0.371094 17.6346L5.35832 17.6448L10.3455 17.655L10.4937 17.8598C10.8408 18.3396 11.4432 18.8881 12.0039 19.2349C12.5839 19.5936 13.3481 19.8655 14.036 19.958C15.0687 20.0967 16.2604 19.8864 17.1453 19.4091C17.6899 19.1153 17.985 18.8941 18.4403 18.4386C18.8956 17.9831 19.1167 17.6878 19.4103 17.1429C19.7842 16.4491 20 15.5578 20 14.7076C20 14.2334 19.8907 13.5484 19.7437 13.1011C19.5603 12.5428 19.255 11.9547 18.9396 11.5518L18.8281 11.4094V6.53572C18.8281 2.12005 18.8221 1.64951 18.7647 1.52836C18.7298 1.45485 18.6463 1.35546 18.5792 1.30751C18.4583 1.22126 18.4407 1.22024 16.8652 1.20934L15.2734 1.19831V0.824422C15.2734 0.3973 15.2175 0.233782 15.0245 0.095981C14.9337 0.0312229 14.8472 0.00882916 14.6875 0.00882916C14.5278 0.00882916 14.4413 0.0312229 14.3505 0.095981C14.1573 0.2339 14.1016 0.397182 14.1016 0.825672V1.20082H12.9297H11.7578V0.825672C11.7578 0.397182 11.7021 0.2339 11.5089 0.095981C11.4181 0.0312229 11.3316 0.00882916 11.1719 0.00882916C11.0122 0.00882916 10.9257 0.0312229 10.8349 0.095981C10.6416 0.2339 10.5859 0.397182 10.5859 0.825672V1.20082H9.41406H8.24219V0.825672C8.24219 0.397182 8.18648 0.2339 7.99324 0.095981C7.90246 0.0312229 7.81594 0.00882916 7.65625 0.00882916C7.49656 0.00882916 7.41004 0.0312229 7.31926 0.095981C7.12602 0.2339 7.07031 0.397182 7.07031 0.825672V1.20082H5.89844H4.72656V0.825672C4.72656 0.399801 4.6707 0.233704 4.48238 0.0995374C4.32711 -0.0110633 4.04297 -0.0333007 3.8757 0.0520533ZM3.55469 2.72886C3.55469 3.13649 3.61309 3.30301 3.80363 3.43902C3.89441 3.50377 3.98094 3.52617 4.14062 3.52617C4.30031 3.52617 4.38684 3.50377 4.47762 3.43902C4.66816 3.30301 4.72656 3.13649 4.72656 2.72886V2.37326H5.89844H7.07031V2.72886C7.07031 3.13649 7.12871 3.30301 7.31926 3.43902C7.41004 3.50377 7.49656 3.52617 7.65625 3.52617C7.81594 3.52617 7.90246 3.50377 7.99324 3.43902C8.18379 3.30301 8.24219 3.13649 8.24219 2.72886V2.37326H9.41406H10.5859V2.72886C10.5859 3.13649 10.6443 3.30301 10.8349 3.43902C10.9257 3.50377 11.0122 3.52617 11.1719 3.52617C11.3316 3.52617 11.4181 3.50377 11.5089 3.43902C11.6994 3.30301 11.7578 3.13649 11.7578 2.72886V2.37326H12.9297H14.1016V2.72886C14.1016 3.13649 14.16 3.30301 14.3505 3.43902C14.4413 3.50377 14.5278 3.52617 14.6875 3.52617C14.8472 3.52617 14.9337 3.50377 15.0245 3.43902C15.215 3.30301 15.2734 3.13649 15.2734 2.72886V2.37326H16.4648H17.6562V3.54571V4.71815H9.41406H1.17188V3.54571V2.37326H2.36328H3.55469V2.72886ZM17.6562 8.09871C17.6562 9.31317 17.6505 10.3068 17.6434 10.3068C17.6363 10.3068 17.4913 10.2274 17.3211 10.1302C16.9038 9.89208 16.3171 9.66834 15.8203 9.55782C15.4763 9.4813 15.3 9.46664 14.7266 9.46676C14.2218 9.46687 13.9596 9.48485 13.7243 9.53558C12.708 9.75463 11.8347 10.2058 11.1363 10.8725C10.9556 11.045 10.6973 11.3251 10.5623 11.495L10.3169 11.8038L9.53516 11.7952C8.86981 11.7879 8.73277 11.7964 8.61426 11.8527C8.53769 11.889 8.43582 11.9738 8.38789 12.041C8.32316 12.1318 8.30078 12.2184 8.30078 12.3781C8.30078 12.5379 8.32316 12.6245 8.38789 12.7153C8.53504 12.9216 8.68023 12.9644 9.23441 12.9644C9.60227 12.9644 9.72648 12.9767 9.72625 13.0132C9.72609 13.0401 9.69184 13.1743 9.65012 13.3116C9.60844 13.4488 9.5534 13.6906 9.52789 13.8489L9.48148 14.1368H9.11188C8.68934 14.1368 8.52523 14.1933 8.38789 14.3859C8.32316 14.4767 8.30078 14.5633 8.30078 14.723C8.30078 14.8828 8.32316 14.9694 8.38789 15.0602C8.52523 15.2528 8.68934 15.3093 9.11188 15.3093H9.48148L9.52789 15.5971C9.5534 15.7554 9.60844 15.9972 9.65012 16.1345C9.69184 16.2717 9.72609 16.406 9.72625 16.4328C9.72648 16.4716 8.84519 16.4817 5.44922 16.4817H1.17188V11.1861V5.8906H9.41406H17.6562V8.09871ZM3.8757 7.16712C3.8052 7.2019 3.70852 7.28503 3.66086 7.35186C3.5966 7.44202 3.57422 7.52894 3.57422 7.68835C3.57422 7.84812 3.5966 7.93468 3.66133 8.02551C3.81969 8.24757 3.93512 8.27457 4.72656 8.27457C5.51801 8.27457 5.63344 8.24757 5.7918 8.02551C5.85652 7.93468 5.87891 7.84812 5.87891 7.68835C5.87891 7.52859 5.85652 7.44202 5.7918 7.35119C5.63301 7.12851 5.51875 7.10201 4.72066 7.10303C4.14059 7.10373 3.97945 7.11596 3.8757 7.16712ZM8.60227 7.16712C8.53176 7.2019 8.43508 7.28503 8.38742 7.35186C8.32316 7.44202 8.30078 7.52894 8.30078 7.68835C8.30078 7.84812 8.32316 7.93468 8.38789 8.02551C8.54625 8.24757 8.66168 8.27457 9.45312 8.27457C10.2446 8.27457 10.36 8.24757 10.5184 8.02551C10.5831 7.93468 10.6055 7.84812 10.6055 7.68835C10.6055 7.52859 10.5831 7.44202 10.5184 7.35119C10.3596 7.12851 10.2453 7.10201 9.44723 7.10303C8.86715 7.10373 8.70602 7.11596 8.60227 7.16712ZM13.2898 7.16712C13.2193 7.2019 13.1226 7.28503 13.0749 7.35186C13.0107 7.44202 12.9883 7.52894 12.9883 7.68835C12.9883 7.84812 13.0107 7.93468 13.0754 8.02551C13.2338 8.24757 13.3492 8.27457 14.1406 8.27457C14.9321 8.27457 15.0475 8.24757 15.2059 8.02551C15.2706 7.93468 15.293 7.84812 15.293 7.68835C15.293 7.52859 15.2706 7.44202 15.2059 7.35119C15.0471 7.12851 14.9328 7.10201 14.1347 7.10303C13.5546 7.10373 13.3935 7.11596 13.2898 7.16712ZM3.8757 9.51201C3.8052 9.54679 3.70852 9.62992 3.66086 9.69675C3.5966 9.78691 3.57422 9.87383 3.57422 10.0332C3.57422 10.193 3.5966 10.2796 3.66133 10.3704C3.81969 10.5925 3.93512 10.6195 4.72656 10.6195C5.51801 10.6195 5.63344 10.5925 5.7918 10.3704C5.85652 10.2796 5.87891 10.193 5.87891 10.0332C5.87891 9.87348 5.85652 9.78691 5.7918 9.69609C5.63301 9.4734 5.51875 9.4469 4.72066 9.44792C4.14059 9.44862 3.97945 9.46086 3.8757 9.51201ZM8.60227 9.51201C8.53176 9.54679 8.43508 9.62992 8.38742 9.69675C8.32316 9.78691 8.30078 9.87383 8.30078 10.0332C8.30078 10.193 8.32316 10.2796 8.38789 10.3704C8.54625 10.5925 8.66168 10.6195 9.45312 10.6195C10.2446 10.6195 10.36 10.5925 10.5184 10.3704C10.5831 10.2796 10.6055 10.193 10.6055 10.0332C10.6055 9.87348 10.5831 9.78691 10.5184 9.69609C10.3596 9.4734 10.2453 9.4469 9.44723 9.44792C8.86715 9.44862 8.70602 9.46086 8.60227 9.51201ZM15.1963 10.66C15.6457 10.7149 16.0483 10.8289 16.4372 11.0112C16.9014 11.2289 17.2628 11.4811 17.6148 11.8334C17.9668 12.1855 18.2191 12.5472 18.4361 13.0108C18.6318 13.4288 18.7362 13.8109 18.7932 14.3172C18.8725 15.0221 18.7457 15.774 18.4361 16.4352C18.2191 16.8988 17.9668 17.2606 17.6148 17.6127C17.2629 17.9648 16.9013 18.2173 16.4379 18.4344C16.0202 18.6302 15.6382 18.7347 15.1321 18.7916C14.4277 18.8709 13.6761 18.7441 13.0152 18.4344C12.5518 18.2173 12.1903 17.9648 11.8383 17.6127C11.4863 17.2606 11.234 16.8988 11.017 16.4352C10.8213 16.0173 10.7169 15.6351 10.6599 15.1288C10.5807 14.424 10.7074 13.6721 11.017 13.0108C11.1006 12.8322 11.2507 12.5631 11.3505 12.413C11.5828 12.0634 12.0682 11.5777 12.4176 11.3453C12.9604 10.9843 13.5979 10.7405 14.1992 10.6641C14.5881 10.6147 14.8184 10.6137 15.1963 10.66ZM3.8757 11.8569C3.8052 11.8917 3.70852 11.9748 3.66086 12.0416C3.5966 12.1318 3.57422 12.2187 3.57422 12.3781C3.57422 12.5379 3.5966 12.6245 3.66133 12.7153C3.81969 12.9374 3.93512 12.9644 4.72656 12.9644C5.51801 12.9644 5.63344 12.9374 5.7918 12.7153C5.85652 12.6245 5.87891 12.5379 5.87891 12.3781C5.87891 12.2184 5.85652 12.1318 5.7918 12.041C5.63301 11.8183 5.51875 11.7918 4.72066 11.7928C4.14059 11.7935 3.97945 11.8057 3.8757 11.8569ZM14.4616 11.8547C14.3911 11.8907 14.2945 11.9748 14.2468 12.0416C14.1612 12.1617 14.1602 12.1803 14.1602 13.5506C14.1602 14.9232 14.1611 14.9393 14.2473 15.0602C14.4201 15.3026 14.4644 15.3093 15.8984 15.3093C17.3325 15.3093 17.3768 15.3026 17.5496 15.0602C17.6143 14.9694 17.6367 14.8828 17.6367 14.723C17.6367 14.5633 17.6143 14.4767 17.5496 14.3859C17.3839 14.1535 17.2973 14.1368 16.2539 14.1368H15.3125V13.195C15.3125 12.1547 15.2954 12.0639 15.0683 11.9022C14.913 11.7916 14.6289 11.7693 14.4616 11.8547ZM3.8757 14.2018C3.8052 14.2366 3.70852 14.3197 3.66086 14.3865C3.5966 14.4767 3.57422 14.5636 3.57422 14.723C3.57422 14.8828 3.5966 14.9694 3.66133 15.0602C3.81969 15.2822 3.93512 15.3093 4.72656 15.3093C5.51801 15.3093 5.63344 15.2822 5.7918 15.0602C5.85652 14.9694 5.87891 14.8828 5.87891 14.723C5.87891 14.5633 5.85652 14.4767 5.7918 14.3859C5.63301 14.1632 5.51875 14.1367 4.72066 14.1377C4.14059 14.1384 3.97945 14.1506 3.8757 14.2018Z" />
</svg>
