<svg width="21" height="20" viewBox="0 0 21 20" xmlns="http://www.w3.org/2000/svg">
<path fill-rule="evenodd" clip-rule="evenodd" d="M7.31481 0.0710034C7.15588 0.113015 6.92919 0.19164 6.8111 0.245699C6.31881 0.471052 5.7907 0.953872 5.50025 1.44405C5.41905 1.58111 5.30463 1.83412 5.24599 2.00623L5.13944 2.31917V5.99616C5.13944 9.64885 5.13999 9.67525 5.2246 9.99195C5.34387 10.4386 5.5141 10.8472 5.72702 11.198C5.82723 11.363 5.90324 11.5032 5.89592 11.5094C5.88865 11.5156 5.21376 11.9393 4.39622 12.4509C3.57868 12.9626 2.75135 13.4884 2.55773 13.6194C2.11805 13.9168 1.426 14.6046 1.09671 15.0713C0.796762 15.4964 0.43231 16.2276 0.268058 16.7337C0.201755 16.9381 0.112334 17.3118 0.0693442 17.564C0.00429283 17.9461 -0.00677725 18.1632 0.00319756 18.8641L0.0151282 19.7055L0.162482 19.8527L0.309796 20H10.0095H19.7092L19.8565 19.8526L20.0039 19.7051L20.0024 18.7182C20.0012 17.8519 19.9907 17.6849 19.9163 17.3525C19.8697 17.1442 19.7861 16.8361 19.7304 16.6679C19.58 16.213 19.2036 15.4698 18.9223 15.0724C18.6178 14.6423 17.9924 14.0009 17.5982 13.7145C17.4368 13.5973 16.5919 13.0556 15.7206 12.5108C14.8492 11.966 14.1297 11.5145 14.1215 11.5076C14.1134 11.5007 14.1607 11.4108 14.2266 11.3078C14.5346 10.8267 14.773 10.2024 14.8583 9.65358C14.8912 9.44184 14.9005 8.38076 14.8917 5.83969L14.8795 2.31917L14.773 2.00623C14.7144 1.83412 14.6001 1.57888 14.5189 1.43904C14.3295 1.11245 13.7784 0.561294 13.4518 0.371891C13.3119 0.290762 13.0567 0.176463 12.8846 0.117826L12.5716 0.011272L10.0877 0.00294007C7.73359 -0.00496155 7.58871 -0.00140191 7.31481 0.0710034ZM12.1588 1.20543C12.965 1.31007 13.5831 1.92714 13.6857 2.7299C13.7063 2.89125 13.7237 3.81101 13.7244 4.77375L13.7256 6.52423H10.0095H6.29339L6.2946 4.77375C6.29527 3.81101 6.31283 2.89223 6.3336 2.73205C6.41039 2.14048 6.76612 1.63591 7.28844 1.37774C7.46075 1.29258 7.6617 1.22832 7.81942 1.20794C8.17659 1.16178 11.8062 1.15967 12.1588 1.20543ZM9.75523 2.33501C9.7122 2.3541 9.62419 2.42549 9.55965 2.49367C9.4518 2.60762 9.4412 2.64403 9.42865 2.94375L9.41503 3.26983L9.08704 3.28344C8.76722 3.29674 8.75537 3.30077 8.61169 3.44444C8.46954 3.58659 8.46438 3.60134 8.46438 3.86429C8.46438 4.12723 8.46954 4.14198 8.61169 4.28413C8.75537 4.4278 8.76722 4.43183 9.08704 4.44513L9.41503 4.45874L9.42865 4.78674C9.44195 5.10656 9.44597 5.11841 9.58965 5.26209C9.7318 5.40424 9.74655 5.4094 10.0095 5.4094C10.2724 5.4094 10.2872 5.40424 10.4293 5.26209C10.573 5.11841 10.577 5.10656 10.5903 4.78674L10.604 4.45874L10.9319 4.44513C11.2518 4.43183 11.2636 4.4278 11.4073 4.28413C11.5494 4.14198 11.5546 4.12723 11.5546 3.86429C11.5546 3.60134 11.5494 3.58659 11.4073 3.44444C11.2636 3.30077 11.2518 3.29674 10.9319 3.28344L10.604 3.26983L10.5903 2.94183C10.5771 2.62315 10.5726 2.60973 10.432 2.46914C10.3032 2.34033 10.2623 2.32312 10.0604 2.3124C9.93556 2.30575 9.79826 2.31596 9.75523 2.33501ZM13.7143 8.56809C13.6959 9.22862 13.6744 9.46359 13.6097 9.71226C13.4558 10.3033 13.1597 10.807 12.7229 11.2203C12.3016 11.6191 11.8865 11.8515 11.3199 12.0058C11.0366 12.083 10.9125 12.0911 10.0095 12.0911C9.10644 12.0911 8.9824 12.083 8.69908 12.0058C8.13247 11.8515 7.7174 11.6191 7.29607 11.2203C6.85933 10.807 6.56314 10.3033 6.40929 9.71226C6.34459 9.46359 6.32308 9.22862 6.30465 8.56809L6.28146 7.73686H10.0095H13.7375L13.7143 8.56809ZM6.25427 13.5843V14.4248L6.11314 14.4838C5.70077 14.656 5.29524 15.1088 5.15943 15.5485C5.05514 15.8862 5.05514 16.3295 5.15943 16.6672C5.31613 17.1745 5.77583 17.6332 6.28529 17.7906C6.44454 17.8398 6.64775 17.8681 6.84102 17.8681C7.0343 17.8681 7.23751 17.8398 7.39676 17.7906C7.90622 17.6332 8.36592 17.1745 8.52262 16.6672C8.62644 16.3311 8.62687 15.886 8.52376 15.5521C8.48112 15.4141 8.37339 15.1994 8.28436 15.0751C8.11897 14.8441 7.72636 14.5216 7.55968 14.4798L7.4669 14.4565V13.6385V12.8204L7.6324 12.9049C7.87864 13.0305 8.29856 13.1656 8.65018 13.2323C8.87976 13.2758 9.23822 13.2915 10.0095 13.2915C10.7808 13.2915 11.1392 13.2758 11.3688 13.2323C11.7196 13.1658 12.1402 13.0306 12.385 12.9057C12.4752 12.8597 12.5585 12.8221 12.5701 12.8221C12.5817 12.8221 12.5912 13.1548 12.5912 13.5615V14.301L12.0533 14.3148C11.5276 14.3282 11.51 14.3315 11.2696 14.4616C10.9912 14.6123 10.8397 14.7679 10.6842 15.0629C10.5784 15.2636 10.5765 15.2796 10.564 16.0848C10.5495 17.0217 10.5721 17.1307 10.8356 17.3941C11.0811 17.6396 11.2372 17.681 11.8613 17.6659L12.3945 17.653L12.5418 17.5056C12.6838 17.3635 12.689 17.3487 12.689 17.0858C12.689 16.8228 12.6838 16.8081 12.5417 16.666C12.3975 16.5218 12.3872 16.5183 12.0592 16.5047L11.7241 16.4907L11.7372 16.0469C11.7459 15.7501 11.7671 15.5862 11.801 15.5523C11.8407 15.5127 12.1435 15.5016 13.178 15.5016C14.2124 15.5016 14.5152 15.5127 14.5549 15.5523C14.5889 15.5862 14.6101 15.7501 14.6188 16.0469L14.6318 16.4907L14.2967 16.5047C13.9687 16.5183 13.9584 16.5218 13.8142 16.666C13.6721 16.8081 13.6669 16.8228 13.6669 17.0858C13.6669 17.3487 13.6721 17.3635 13.8142 17.5056L13.9614 17.653L14.4946 17.6659C15.1187 17.681 15.2749 17.6396 15.5204 17.3941C15.7838 17.1307 15.8064 17.0217 15.7919 16.0848L15.7792 15.2669L15.6459 15.021C15.4945 14.7418 15.3381 14.5899 15.0443 14.4368C14.8586 14.34 14.7942 14.3292 14.3221 14.3157L13.8038 14.3008V13.5211V12.7414L14.0092 12.8724C14.1221 12.9444 14.7602 13.3452 15.4272 13.763C16.0941 14.1808 16.7745 14.6241 16.9391 14.7481C17.5092 15.1775 18.0606 15.8604 18.3596 16.5076C18.6445 17.1243 18.7856 17.7084 18.8275 18.4451L18.8503 18.8461H10.0089H1.16751L1.18996 18.4647C1.21997 17.9558 1.26972 17.644 1.387 17.2304C1.65561 16.2827 2.28313 15.3561 3.05647 14.765C3.32508 14.5597 6.1627 12.7519 6.22493 12.7464C6.24105 12.745 6.25427 13.122 6.25427 13.5843ZM7.12634 15.6263C7.28269 15.7051 7.38839 15.8993 7.38839 16.1079C7.38839 16.4342 7.16714 16.6555 6.84102 16.6555C6.63523 16.6555 6.4664 16.5672 6.37006 16.4091C6.23827 16.193 6.28635 15.8295 6.46648 15.68C6.56682 15.5967 6.81478 15.5249 6.91926 15.5488C6.97304 15.5611 7.06622 15.596 7.12634 15.6263Z" />
</svg>
