<svg width="20" height="20" viewBox="0 0 20 20" xmlns="http://www.w3.org/2000/svg">
<path fill-rule="evenodd" clip-rule="evenodd" d="M2.92944 0.155746L2.77395 0.311551V2.12733V3.94316L2.16933 3.97081C1.66959 3.99368 1.50625 4.02635 1.22747 4.15917C1.04202 4.24756 0.773328 4.43368 0.63046 4.57282C0.487533 4.71191 0.287211 5.00077 0.18528 5.21465L0 5.6036L0.0155138 12.0632L0.0310275 18.5229L0.168882 18.8116C0.361181 19.2142 0.772384 19.6337 1.16949 19.832L1.50572 20H9.99994H18.4942L18.8304 19.832C19.2275 19.6337 19.6387 19.2142 19.831 18.8116L19.9689 18.5229L19.9844 12.4474L20 6.37188L19.8243 6.00721C19.5356 5.40792 19.1318 5.04739 18.5287 4.85034C18.2756 4.76768 17.9971 4.72674 17.6881 4.72674H17.2259V4.46038V4.19409L15.1318 2.09702L13.0377 0H8.06137H3.085L2.92944 0.155746ZM12.0946 2.58493C12.0951 3.93684 12.1003 3.999 12.2346 4.2836C12.4022 4.63864 12.6224 4.85578 12.9788 5.01737C13.2217 5.1275 13.3636 5.13784 14.6452 5.13903L16.0462 5.14033V6.11521V7.0901H13.2218H10.3975L9.8451 5.98228C9.22478 4.73826 8.97249 4.41968 8.3917 4.147L8.05335 3.98818L6.00353 3.97058L3.95371 3.95297V2.56733V1.18168H8.02385H12.094L12.0946 2.58493ZM14.2421 2.98871C14.5368 3.2839 14.8559 3.60957 14.9512 3.7125L15.1244 3.89956H14.3213C13.6698 3.89956 13.5006 3.88201 13.4254 3.80674C13.3503 3.7314 13.3327 3.56195 13.3327 2.90936V2.10493L13.5195 2.27846C13.6223 2.37388 13.9474 2.69353 14.2421 2.98871ZM7.90482 5.32526C8.01784 5.39427 8.14519 5.49388 8.1879 5.54665C8.23061 5.59935 8.52448 6.161 8.84089 6.79468C9.15736 7.42836 9.45324 8.00473 9.49849 8.07557C9.54367 8.14635 9.64307 8.23279 9.71934 8.26759C9.81366 8.31067 11.1726 8.33093 13.9696 8.33111C18.0266 8.33129 18.0839 8.33294 18.282 8.45389C18.555 8.62062 18.6809 8.78724 18.7555 9.08083C18.7974 9.24526 18.8186 10.7569 18.8186 13.5766C18.8186 18.143 18.8143 18.213 18.516 18.531C18.2103 18.857 18.4547 18.8479 9.99994 18.8479C1.57019 18.8479 1.78308 18.8556 1.49486 18.5387C1.19798 18.2123 1.21202 18.5068 1.19238 12.2009C1.17934 8.03728 1.1932 6.2052 1.23921 5.99705C1.31318 5.66198 1.42892 5.49885 1.7179 5.32242C1.91385 5.20278 1.98771 5.19982 4.80903 5.19982C7.65135 5.19982 7.70284 5.20195 7.90482 5.32526ZM18.3783 6.17194C18.4907 6.25784 18.6211 6.40236 18.6679 6.49306C18.7702 6.69111 18.8552 7.26771 18.782 7.26647C18.7534 7.266 18.6239 7.22724 18.4942 7.18044C18.3597 7.13188 18.0363 7.09418 17.7421 7.0927L17.2259 7.0901V6.52035V5.95061L17.6999 5.98316C18.0916 6.01004 18.2093 6.04278 18.3783 6.17194ZM8.54843 9.89643C8.24535 10.0614 8.20082 10.2087 8.20082 11.0467V11.8168H7.38024H6.55966L6.40694 11.9986L6.25422 12.1804V13.5377C6.25422 15.017 6.28696 15.1917 6.58532 15.3053C6.66696 15.3364 7.06389 15.3619 7.46731 15.3619H8.20082V16.1043C8.20082 16.5538 8.22777 16.8972 8.26912 16.9746C8.43571 17.2863 8.41199 17.2821 9.99994 17.2821C11.5879 17.2821 11.5642 17.2863 11.7308 16.9746C11.7721 16.8972 11.7991 16.5538 11.7991 16.1043V15.3619H12.5394C13.3536 15.3619 13.5541 15.3048 13.6752 15.0386C13.7232 14.9329 13.7457 14.4541 13.7457 13.5321V12.1804L13.5929 11.9986L13.4402 11.8168H12.6196H11.7991V11.0467C11.7991 10.4307 11.7796 10.2467 11.7019 10.1279C11.5084 9.83208 11.3772 9.8078 9.98814 9.81034C8.99385 9.81217 8.66735 9.83167 8.54843 9.89643ZM10.5603 11.8509V12.6531L10.7327 12.8258L10.9052 12.9985H11.706H12.5069V13.5598V14.1211H11.7657C11.317 14.1211 10.9741 14.1481 10.8968 14.1895C10.6061 14.3454 10.5908 14.3952 10.5706 15.2541L10.5514 16.0709H9.99546H9.43956V15.3267C9.43956 14.5176 9.37862 14.3112 9.10262 14.1852C9.02535 14.15 8.63155 14.1211 8.22754 14.1211H7.49297V13.5598V12.9985H8.31354H9.13412L9.28684 12.8167C9.43454 12.6409 9.43956 12.6089 9.43956 11.8418V11.0487H9.99994H10.5603V11.8509Z" />
</svg>
