<svg width="16" height="20" viewBox="0 0 16 20" xmlns="http://www.w3.org/2000/svg">
<path fill-rule="evenodd" clip-rule="evenodd" d="M6.86479 0.0573844C6.41071 0.12326 5.78451 0.277126 5.33835 0.432477C5.15517 0.496282 4.79388 0.650539 4.53551 0.775296C3.2189 1.41104 2.07105 2.43156 1.25302 3.69363C0.826511 4.35169 0.421764 5.29231 0.230254 6.07051C0.0515849 6.79647 0.00147602 7.22607 2.75647e-05 8.04393C-0.00153834 8.93903 0.0632509 9.45529 0.287058 10.3308C0.477706 11.0767 0.721791 11.7257 1.10931 12.5177C1.75223 13.8314 2.56595 15.018 3.74864 16.3663C4.24284 16.9297 5.26381 17.9499 5.82103 18.4373L6.24532 18.8083L5.61821 18.8278C5.06705 18.845 4.97819 18.857 4.8847 18.9268C4.74264 19.0328 4.63338 19.2446 4.63338 19.4139C4.63338 19.5958 4.74741 19.8031 4.90737 19.9121L5.03644 20H8.00007H10.9637L11.0928 19.9121C11.2527 19.8031 11.3668 19.5958 11.3668 19.4139C11.3668 19.2446 11.2575 19.0328 11.1154 18.9268C11.0219 18.857 10.9331 18.845 10.3819 18.8278L9.75482 18.8083L10.1791 18.4373C10.4125 18.2332 10.8857 17.7848 11.2309 17.4409C12.8798 15.7977 14.07 14.1968 14.8911 12.5177C15.2799 11.7224 15.5235 11.0734 15.7118 10.3314C15.9367 9.44447 16.001 8.93391 16 8.04393C15.999 7.22587 15.9475 6.78463 15.7705 6.07613C15.4807 4.91581 14.8916 3.76127 14.1254 2.85182C13.8053 2.47181 13.3872 2.05925 13.011 1.7521C12.3985 1.25209 11.4288 0.703325 10.7012 0.445058C10.2503 0.284941 9.58738 0.123768 9.10199 0.0561732C8.56015 -0.0192361 7.38882 -0.0186109 6.86479 0.0573844ZM8.88089 1.24979C9.31852 1.30277 10.0018 1.4752 10.4002 1.63312C11.0939 1.90819 11.7702 2.30446 12.3064 2.75012C12.6542 3.03918 13.1146 3.51402 13.3739 3.85102C14.0254 4.69794 14.5057 5.7886 14.7011 6.86481C14.7663 7.22345 14.7841 7.47992 14.7848 8.06346C14.7854 8.58699 14.7659 8.92051 14.719 9.19487C14.5625 10.1092 14.2844 10.9647 13.8523 11.8611C13.5088 12.5737 13.2342 13.0481 12.767 13.736C11.8734 15.0519 10.6473 16.4039 9.17449 17.6972C8.70171 18.1123 8.05104 18.6325 8.00445 18.6325C7.98272 18.6325 7.79227 18.4946 7.58123 18.3262C6.22872 17.2465 4.81941 15.8275 3.79159 14.5104C3.40763 14.0184 2.75249 13.0287 2.47243 12.5177C2.14026 11.9117 1.8631 11.2818 1.65237 10.654C1.19841 9.30185 1.08939 8.11582 1.30392 6.86352C1.49437 5.75152 2.01002 4.6162 2.73092 3.72173C3.06665 3.3051 3.63347 2.77298 4.09016 2.44563C4.53218 2.12883 5.41684 1.68068 5.91883 1.51927C6.44571 1.34989 7.01429 1.24154 7.5303 1.21228C8.06141 1.18219 8.40023 1.19157 8.88089 1.24979ZM7.2509 2.88922C6.9441 2.93419 6.43589 3.06707 6.12713 3.18308C5.76345 3.31971 5.2568 3.59498 4.90878 3.84508C4.5294 4.11772 3.99672 4.65641 3.71243 5.05491C3.27566 5.66721 2.93324 6.49448 2.81489 7.22341C2.73848 7.69392 2.73758 8.46649 2.81286 8.92977C2.91539 9.5609 3.15148 10.2095 3.48142 10.7664C4.05572 11.7359 4.95897 12.5137 6.01149 12.9449C6.19889 13.0217 6.5336 13.1301 6.75529 13.1859C7.07873 13.2672 7.28727 13.2913 7.81055 13.3078C8.32135 13.324 8.55009 13.3139 8.8657 13.2612C10.2894 13.0236 11.5743 12.1966 12.3696 11.0058C12.7657 10.4128 13.073 9.63342 13.1868 8.93289C13.2625 8.4668 13.2618 7.69505 13.1852 7.22341C13.0716 6.52367 12.7538 5.7373 12.3326 5.11383C12.0731 4.72979 11.4861 4.12878 11.0981 3.84996C10.4323 3.37148 9.62062 3.03406 8.83708 2.91004C8.41902 2.84385 7.63083 2.8335 7.2509 2.88922ZM8.98905 4.17059C9.41689 4.28378 9.87007 4.4882 10.2449 4.73709C10.4215 4.85439 10.7162 5.1059 10.8998 5.29594C11.4569 5.87273 11.7991 6.51847 11.9626 7.30155C12.0265 7.6078 12.0367 7.77183 12.0207 8.23929C12.0051 8.69448 11.9811 8.87495 11.8988 9.15748C11.7672 9.60915 11.5064 10.1392 11.2452 10.4859C10.9795 10.8387 10.5936 11.209 10.2632 11.4284C9.90726 11.6648 9.41842 11.8881 9.0179 11.9972C8.72895 12.076 8.59499 12.0879 8.00007 12.0879C7.40514 12.0879 7.27118 12.076 6.98223 11.9972C5.84558 11.6875 4.88713 10.9017 4.37637 9.86078C4.28148 9.66737 4.15773 9.35089 4.10136 9.15748C4.01903 8.87495 3.99508 8.69448 3.97946 8.23929C3.96341 7.77183 3.97358 7.6078 4.03751 7.30155C4.19665 6.53949 4.53927 5.88066 5.0586 5.33814C5.43974 4.93999 5.78079 4.68568 6.21885 4.47297C6.90546 4.13964 7.31263 4.05435 8.11751 4.07541C8.52668 4.08607 8.76998 4.11268 8.98905 4.17059ZM7.74561 6.39918C7.70254 6.41825 7.61446 6.48952 7.54987 6.55758C7.43716 6.67636 7.43188 6.69781 7.41908 7.08912L7.40573 7.49692H7.04655C6.7715 7.49692 6.6557 7.51387 6.55196 7.56939C6.40202 7.64965 6.23843 7.91655 6.23843 8.08085C6.23843 8.24734 6.4012 8.52287 6.54992 8.60813C6.65022 8.66564 6.77941 8.68983 7.04905 8.70159L7.41285 8.71749V9.0682C7.41285 9.33194 7.42984 9.44775 7.48136 9.53511C7.70164 9.90868 8.29849 9.90868 8.51877 9.53511C8.57029 9.44775 8.58728 9.33194 8.58728 9.0682V8.71749L8.95108 8.70159C9.22073 8.68983 9.34991 8.66564 9.45021 8.60813C9.59893 8.52287 9.76171 8.24734 9.76171 8.08085C9.76171 7.91655 9.59811 7.64965 9.44817 7.56939C9.34443 7.51387 9.22863 7.49692 8.95358 7.49692H8.59441L8.58106 7.0872L8.56771 6.67753L8.4229 6.53308C8.29403 6.40454 8.25308 6.38731 8.051 6.3766C7.92608 6.36996 7.78867 6.38016 7.74561 6.39918Z" />
</svg>
