<svg width="17" height="20" viewBox="0 0 17 20" xmlns="http://www.w3.org/2000/svg">
<path fill-rule="evenodd" clip-rule="evenodd" d="M8.12197 0.0418941C7.91693 0.108978 7.76853 0.212576 7.42455 0.528841C6.86489 1.04335 6.24064 1.47341 5.56761 1.80805C4.88192 2.14899 4.23484 2.36677 3.43703 2.52514C2.92588 2.62659 2.41122 2.68179 1.61919 2.7201C1.07731 2.74633 0.941191 2.76564 0.768124 2.8409C0.512806 2.95188 0.207409 3.27511 0.112764 3.53445C0.0538892 3.69583 0.0400502 3.95553 0.0121767 5.42211C-0.019958 7.1138 0.0128412 8.77382 0.094859 9.60592C0.37551 12.4534 1.13548 14.52 2.5457 16.2705C2.91986 16.735 3.69637 17.4987 4.16025 17.8585C5.14693 18.6237 6.26586 19.2423 7.58092 19.7497C8.33902 20.0421 8.53171 20.0614 9.02753 19.895C9.60404 19.7014 10.5544 19.2819 11.1384 18.9632C12.1588 18.4064 12.8894 17.8744 13.6549 17.1311C14.8131 16.0065 15.63 14.7173 16.1648 13.1703C16.332 12.6862 16.5488 11.8913 16.6465 11.4034C16.7281 10.9956 16.8554 10.0986 16.9044 9.58555C16.9833 8.75881 17.0154 7.10903 16.9854 5.42211C16.9593 3.94857 16.9461 3.69657 16.8867 3.53445C16.7917 3.27495 16.4862 2.95181 16.2311 2.84078C16.0603 2.7665 15.9214 2.74602 15.4191 2.72116C14.3373 2.6676 13.843 2.60223 13.0641 2.40966C11.7364 2.08139 10.5918 1.45481 9.49649 0.456635C9.32448 0.299871 9.10458 0.136265 9.00783 0.0930673C8.78703 -0.00548699 8.34488 -0.0310149 8.12197 0.0418941ZM8.8072 1.42736C9.51741 2.06149 10.1209 2.47796 10.8843 2.86068C11.7383 3.28879 12.5611 3.55693 13.5231 3.72069C14.0602 3.81213 14.8781 3.89145 15.4582 3.90846L15.7514 3.91702L15.7754 4.38614C15.8155 5.16867 15.8115 8.29571 15.7696 8.92097C15.6098 11.3057 15.1019 13.1277 14.1826 14.6139C13.269 16.0909 11.9856 17.2238 10.2316 18.1016C9.63684 18.3993 8.63781 18.805 8.49961 18.805C8.36118 18.805 7.36196 18.3991 6.76512 18.1004C5.00948 17.2217 3.73159 16.0919 2.81118 14.6049C1.89644 13.1269 1.38932 11.3044 1.22966 8.92097C1.18767 8.2941 1.18345 5.11367 1.22364 4.36659L1.2478 3.91702L1.541 3.90846C2.92612 3.86792 4.18594 3.64309 5.25068 3.24645C5.74885 3.06088 6.47735 2.69395 6.93576 2.39774C7.32001 2.14945 7.89109 1.70422 8.26505 1.36141C8.38331 1.25301 8.48652 1.16356 8.49445 1.16262C8.50235 1.16168 8.64309 1.28084 8.8072 1.42736ZM7.01008 5.66723C6.93701 5.71602 6.84647 5.81719 6.8089 5.89201C6.74909 6.01098 6.74053 6.15437 6.74049 7.03471L6.74041 8.04137L5.73376 8.04144C4.85342 8.04148 4.71002 8.05005 4.59106 8.10986C4.51624 8.14743 4.41506 8.23797 4.36627 8.31103C4.27828 8.44274 4.27753 8.45517 4.27753 9.80057C4.27753 11.146 4.27828 11.1584 4.36627 11.2901C4.41506 11.3632 4.51624 11.4537 4.59106 11.4913C4.71002 11.5511 4.85342 11.5596 5.73376 11.5597L6.74041 11.5598L6.74049 12.5664C6.74053 13.4468 6.74909 13.5902 6.8089 13.7091C6.84647 13.7839 6.93701 13.8851 7.01008 13.9339C7.14178 14.0219 7.15422 14.0226 8.49961 14.0226C9.84501 14.0226 9.85744 14.0219 9.98915 13.9339C10.0622 13.8851 10.1528 13.7839 10.1903 13.7091C10.2501 13.5902 10.2587 13.4468 10.2587 12.5664L10.2588 11.5598L11.2655 11.5597C12.1458 11.5596 12.2892 11.5511 12.4082 11.4913C12.483 11.4537 12.5842 11.3632 12.633 11.2901C12.721 11.1584 12.7217 11.146 12.7217 9.80057C12.7217 8.45517 12.721 8.44274 12.633 8.31103C12.5842 8.23797 12.483 8.14743 12.4082 8.10986C12.2892 8.05005 12.1458 8.04148 11.2655 8.04144L10.2588 8.04137L10.2587 7.03471C10.2587 6.15437 10.2501 6.01098 10.1903 5.89201C10.1528 5.81719 10.0622 5.71602 9.98915 5.66723C9.85744 5.57923 9.84501 5.57849 8.49961 5.57849C7.15422 5.57849 7.14178 5.57923 7.01008 5.66723ZM9.08609 7.75794C9.08613 8.63906 9.09465 8.78132 9.1545 8.89864C9.19207 8.97237 9.27245 9.06913 9.33312 9.11366C9.43719 9.19005 9.50279 9.19528 10.4961 9.20619L11.5489 9.21776V9.80057V10.3834L10.4961 10.3949C9.50279 10.4058 9.43719 10.4111 9.33312 10.4875C9.27245 10.532 9.19207 10.6288 9.1545 10.7025C9.09465 10.8198 9.08613 10.9621 9.08609 11.8432L9.08601 12.8498H8.49961H7.91321L7.91313 11.8432C7.91309 10.9621 7.90457 10.8198 7.84472 10.7025C7.80715 10.6288 7.72678 10.532 7.6661 10.4875C7.56204 10.4111 7.49644 10.4058 6.50308 10.3949L5.45033 10.3834V9.80057V9.21776L6.50308 9.20619C7.49644 9.19528 7.56204 9.19005 7.6661 9.11366C7.72678 9.06913 7.80715 8.97237 7.84472 8.89864C7.90457 8.78132 7.91309 8.63906 7.91313 7.75794L7.91321 6.75129H8.49961H9.08601L9.08609 7.75794Z" />
</svg>
