<svg width="20" height="20" viewBox="0 0 20 20" xmlns="http://www.w3.org/2000/svg">
<path fill-rule="evenodd" clip-rule="evenodd" d="M2.68932 0.067051C2.33936 0.141451 1.7605 0.393346 1.45031 0.606223C1.18708 0.786885 0.755221 1.23317 0.570606 1.51532C0.479138 1.65509 0.340901 1.91899 0.263422 2.10176C-0.0118797 2.75126 7.6359e-05 2.44576 7.6359e-05 8.82481V14.5618L0.0881056 14.6925C0.279285 14.9764 0.649062 15.0632 0.903108 14.8839C0.975899 14.8325 1.83271 14.1258 2.80709 13.3135L4.57873 11.8366H4.78483H4.99098L5.01231 12.8825C5.0304 13.7692 5.04626 13.9788 5.11652 14.2606C5.22424 14.6928 5.48758 15.2271 5.76198 15.5703C5.88237 15.7208 6.0989 15.9451 6.2432 16.0686C6.55675 16.3371 7.16541 16.6528 7.59958 16.7723C7.90899 16.8574 7.95056 16.8585 11.692 16.8789L15.4719 16.8996L17.2598 18.3894C18.2431 19.2087 19.1077 19.91 19.1811 19.9478C19.3483 20.0338 19.6007 20.0115 19.7621 19.8964C19.8259 19.8509 19.907 19.7528 19.9423 19.6783C20.0013 19.5541 20.0057 19.0306 19.996 13.3733L19.9854 7.20378L19.8756 6.85192C19.6889 6.25328 19.3481 5.70019 18.9186 5.29879C18.5058 4.91303 17.8917 4.59213 17.3149 4.46089C17.1361 4.42019 16.7351 4.39513 16.0294 4.38062L15.0037 4.35947V3.91894C15.0037 3.32886 14.9402 2.74395 14.8414 2.42344C14.6298 1.73719 14.187 1.10274 13.6135 0.66385C13.3519 0.46364 12.8971 0.236884 12.5227 0.119948L12.171 0.0101273L7.59958 0.00258177C3.29002 -0.00457278 3.00874 -0.000897766 2.68932 0.067051ZM12.0825 1.23899C12.2448 1.28051 12.4893 1.37078 12.626 1.43951C12.9579 1.60665 13.3885 2.04355 13.5515 2.37868C13.7969 2.88321 13.7925 2.81765 13.7925 5.91361C13.7925 9.00978 13.7972 8.94105 13.5512 9.4518C13.3831 9.80081 12.9312 10.246 12.5656 10.4227C12.0595 10.6674 12.1546 10.6624 8.01835 10.6631C4.89025 10.6637 4.23525 10.673 4.13069 10.7182C4.06153 10.7482 3.37199 11.3015 2.59836 11.948L1.19177 13.1232L1.18185 8.17758C1.17083 2.67459 1.16001 2.92219 1.43488 2.37707C1.71932 1.81296 2.31044 1.3573 2.93048 1.22421C3.13846 1.17953 3.96323 1.16913 7.48588 1.16655C11.6145 1.16357 11.7992 1.16651 12.0825 1.23899ZM6.95821 2.57294C6.33923 2.73511 5.81735 3.1622 5.55131 3.72424C5.41354 4.01523 5.34974 4.28382 5.3454 4.59092C5.34302 4.75731 5.36392 4.86471 5.41585 4.95295C5.51907 5.12837 5.70889 5.23596 5.91523 5.23596C6.24667 5.23596 6.46208 5.03442 6.50592 4.68338C6.54268 4.38895 6.59484 4.23976 6.7212 4.06786C6.88741 3.84169 7.18768 3.69801 7.491 3.69945C7.75255 3.70071 7.89582 3.74621 8.07958 3.88649C8.2554 4.02067 8.38844 4.23405 8.43924 4.46331C8.52758 4.86201 8.33167 5.3009 7.97803 5.49662C7.88734 5.54682 7.68683 5.60667 7.53249 5.62958C7.29021 5.66555 7.23019 5.69143 7.0936 5.81884L6.93536 5.96643L6.92285 6.50693C6.91097 7.01983 6.915 7.05432 7.00193 7.18329C7.11985 7.35833 7.39613 7.47913 7.59364 7.44203C7.8596 7.3921 8.08798 7.113 8.08798 6.83788C8.08798 6.74565 8.10877 6.71844 8.19543 6.69706C8.40817 6.64459 8.80296 6.38988 9.02582 6.16129C9.41666 5.7604 9.64934 5.19401 9.64961 4.643C9.64973 4.34946 9.55588 3.97465 9.40533 3.66767C9.14757 3.14206 8.53778 2.67643 7.94173 2.55007C7.58809 2.47509 7.30674 2.48162 6.95821 2.57294ZM17.1509 5.63896C17.5374 5.7419 17.8579 5.92867 18.1533 6.22314C18.4281 6.49716 18.5681 6.72044 18.7305 7.14428C18.8131 7.35989 18.8132 7.367 18.8239 12.7456C18.8298 15.7076 18.8253 18.1311 18.8139 18.1311C18.8026 18.1311 18.162 17.6047 17.3903 16.9614C16.6187 16.3181 15.9534 15.7736 15.912 15.7514C15.8621 15.7247 14.5251 15.7068 11.9525 15.6985L8.06844 15.686L7.79494 15.5951C7.27513 15.4223 6.91586 15.164 6.62755 14.7556C6.53401 14.6231 6.40683 14.3916 6.3449 14.241L6.23229 13.9674L6.21964 12.902L6.20694 11.8366H9.05853C12.0891 11.8366 12.1859 11.8316 12.7182 11.6445C12.847 11.5991 13.0883 11.4831 13.2544 11.3866L13.5563 11.2111H14.9877C16.387 11.2111 16.4226 11.2092 16.5711 11.1257C16.7669 11.0156 16.8987 10.7599 16.8653 10.5547C16.8375 10.3829 16.7415 10.2451 16.567 10.1262C16.4421 10.0411 16.4075 10.0382 15.5208 10.0382C14.6656 10.0382 14.6053 10.0336 14.625 9.96982C14.6366 9.93217 14.6935 9.78802 14.7514 9.64942C14.8093 9.51083 14.885 9.24353 14.9196 9.05544L14.9826 8.71343L15.7328 8.70143C16.419 8.69044 16.4922 8.68254 16.5907 8.60881C16.7549 8.48601 16.8438 8.34659 16.8655 8.17778C16.8916 7.97459 16.7515 7.70804 16.5662 7.60862C16.4487 7.54556 16.3379 7.53609 15.7174 7.53609H15.0037V6.5587V5.5813L15.9708 5.58177C16.6909 5.58212 16.9922 5.5967 17.1509 5.63896ZM7.19874 8.23728C7.12868 8.2813 7.03647 8.37462 6.99377 8.44472C6.90105 8.59685 6.89179 8.86188 6.97365 9.02022C7.16006 9.38095 7.6519 9.4324 7.92614 9.11983C8.08282 8.94124 8.11607 8.75479 8.03101 8.53187C7.94513 8.30691 7.78197 8.19087 7.52503 8.17191C7.37394 8.16081 7.29544 8.17653 7.19874 8.23728ZM8.47921 12.6293C8.38008 12.6818 8.28139 12.7737 8.2386 12.8535C8.09025 13.1303 8.18238 13.4726 8.44904 13.6353C8.57388 13.7115 8.65382 13.713 12.5266 13.7131L16.4769 13.7133L16.6088 13.6243C16.7796 13.5092 16.9 13.2305 16.8633 13.035C16.8306 12.8604 16.6695 12.664 16.5013 12.5937C16.3965 12.5499 15.6849 12.5404 12.5105 12.5404H8.64729L8.47921 12.6293Z" />
</svg>
