<svg width="18" height="20" viewBox="0 0 18 20" xmlns="http://www.w3.org/2000/svg">
<path fill-rule="evenodd" clip-rule="evenodd" d="M7.97036 0.0383468C7.21629 0.162507 6.47712 0.452421 5.84369 0.872399C5.41144 1.15899 4.77958 1.77271 4.47109 2.20555C4.3381 2.39222 4.13489 2.73843 4.01957 2.97494C3.63309 3.76744 3.47426 4.5289 3.50581 5.43781C3.52684 6.04332 3.59592 6.43414 3.77528 6.96244C4.02684 7.70353 4.41464 8.32976 4.98771 8.92046C5.19811 9.13731 5.50894 9.41456 5.67845 9.53661C6.28232 9.9714 6.99858 10.2852 7.76176 10.4495C8.22028 10.5481 9.32306 10.5478 9.78819 10.4489C10.8249 10.2285 11.6788 9.77504 12.4303 9.04595C12.6472 8.83555 12.9244 8.52472 13.0465 8.35521C13.4807 7.75216 13.8 7.02534 13.9588 6.27831C14.0579 5.81201 14.0579 4.71177 13.9588 4.24547C13.8 3.49844 13.4807 2.77162 13.0465 2.16857C12.9244 1.99906 12.6472 1.68823 12.4303 1.47783C12.0208 1.08057 11.5672 0.754885 11.0978 0.521108C10.7648 0.355275 10.2224 0.168058 9.82728 0.0825611C9.42826 -0.00379564 8.37802 -0.0288152 7.97036 0.0383468ZM9.7704 1.29218C10.2943 1.42346 10.9269 1.74058 11.3503 2.08425C11.5322 2.23186 11.8018 2.50145 11.9494 2.68335C12.2872 3.09949 12.6079 3.73617 12.7462 4.26502C12.8352 4.60548 12.8484 4.73417 12.8484 5.26189C12.8484 5.78961 12.8352 5.9183 12.7462 6.25877C12.6079 6.78762 12.2872 7.42429 11.9494 7.84044C11.8018 8.02234 11.5322 8.29192 11.3503 8.43954C10.9342 8.7773 10.2975 9.09802 9.76864 9.23629C9.42818 9.32535 9.29949 9.33852 8.77177 9.33852C8.24123 9.33852 8.11715 9.32566 7.77489 9.23516C7.55636 9.17738 7.19432 9.03852 6.95394 8.9203C6.14146 8.52073 5.51773 7.89724 5.11265 7.07972C4.98896 6.83007 4.85671 6.4857 4.79737 6.25877C4.70831 5.9183 4.69514 5.78961 4.69514 5.26189C4.69514 4.73417 4.70831 4.60548 4.79737 4.26502C4.85671 4.03808 4.98896 3.69371 5.11265 3.44406C5.5184 2.62522 6.14315 2.0011 6.95394 1.60473C7.39815 1.38753 7.81058 1.2559 8.23424 1.19605C8.6374 1.13909 9.33318 1.18264 9.7704 1.29218ZM6.71938 11.7578C5.62559 11.8814 4.40569 12.3285 3.47352 12.9474C2.95968 13.2886 2.60451 13.5869 2.14533 14.0629C1.67433 14.5512 1.38755 14.9227 1.05744 15.4724C0.748646 15.9865 0.485706 16.5826 0.305448 17.1771C0.103923 17.8418 0.00916097 18.436 0.00169418 19.0813C-0.00420888 19.5903 0.00145959 19.6372 0.0825387 19.7509C0.130506 19.8181 0.22992 19.9016 0.303454 19.9366C0.425542 19.9945 1.16292 20 8.77177 20C16.3806 20 17.118 19.9945 17.2401 19.9366C17.4526 19.8357 17.5443 19.6724 17.5617 19.3639C17.5805 19.0299 17.5104 18.3417 17.4054 17.8303C17.3042 17.3371 17.0764 16.6406 16.8722 16.2001C16.6624 15.7474 16.3406 15.2075 16.0381 14.8006C15.742 14.4022 15.1145 13.7455 14.7244 13.4257C14.0523 12.8747 13.2106 12.4005 12.4224 12.1286C11.9339 11.9601 11.2589 11.808 10.7573 11.7535C10.3014 11.704 7.16649 11.7073 6.71938 11.7578ZM10.5757 12.9264C11.9448 13.0663 13.2317 13.6439 14.2705 14.5848C15.0238 15.267 15.6701 16.2536 16.0173 17.2511C16.1589 17.6577 16.2912 18.2159 16.3378 18.6024L16.3648 18.8272H8.77177H1.17871L1.20576 18.6024C1.28817 17.9181 1.53536 17.1098 1.86022 16.4626C2.49928 15.1893 3.49615 14.197 4.76472 13.5715C5.48681 13.2154 6.20202 13.0037 6.94815 12.9251C7.38338 12.8793 10.1238 12.8802 10.5757 12.9264Z" />
</svg>
