<svg width="21" height="20" viewBox="0 0 21 20" xmlns="http://www.w3.org/2000/svg">
<path fill-rule="evenodd" clip-rule="evenodd" d="M8.22705 0.0455911C7.7418 0.159165 7.38853 0.33027 6.98293 0.648208C6.56486 0.975838 6.18623 1.53871 6.01943 2.08043C5.91054 2.43401 5.87634 2.98575 5.93895 3.37821C5.99801 3.74841 6.16579 4.1979 6.34807 4.47425L6.48338 4.67943H4.0121C1.32016 4.67943 1.27662 4.68256 0.899627 4.90346C0.649889 5.04978 0.391552 5.30362 0.246047 5.54566C-0.0140878 5.97843 0.000138282 5.58541 0.000138282 12.3397C0.000138282 19.0939 -0.0140878 18.7009 0.246047 19.1336C0.391552 19.3757 0.649889 19.6295 0.899627 19.7758C1.30468 20.0132 0.802272 19.9999 9.35299 19.9999C16.4799 19.9999 17.1769 19.9943 17.2989 19.9364C17.3724 19.9015 17.4718 19.818 17.5198 19.7508C17.606 19.6298 17.607 19.6122 17.6179 18.036L17.6289 16.4433H18.0494C18.7092 16.4433 19.0731 16.3166 19.4627 15.9511C19.6932 15.735 19.8752 15.428 19.9526 15.1247C20.0053 14.9181 20.013 14.6553 20.0026 13.405C19.9908 11.9826 19.9871 11.9215 19.903 11.7143C19.725 11.2764 19.3097 10.8587 18.8905 10.6961C18.7074 10.6252 18.5594 10.6041 18.1443 10.5897L17.6264 10.5719V9.02876C17.6264 7.32323 17.6243 7.30728 17.3774 7.13109C17.2742 7.05746 17.1933 7.04187 16.8564 7.03065L16.4577 7.0174L16.4461 6.03404C16.4349 5.08898 16.431 5.04595 16.3473 4.92851C16.1643 4.67209 16.2458 4.67943 13.5875 4.67943H11.1823L11.3176 4.47425C11.4999 4.1979 11.6677 3.74841 11.7267 3.37821C11.7893 2.98575 11.7551 2.43401 11.6462 2.08043C11.3594 1.14894 10.6102 0.399251 9.67311 0.105896C9.32117 -0.00427849 8.57336 -0.0354274 8.22705 0.0455911ZM9.14976 1.20189C9.87599 1.33962 10.4375 1.92144 10.5605 2.66363C10.647 3.18569 10.4546 3.76623 10.0665 4.15436C9.67835 4.54253 9.09781 4.73489 8.57575 4.6484C7.80906 4.52135 7.2322 3.94448 7.10514 3.1778C6.9852 2.45383 7.39987 1.66561 8.06427 1.35471C8.45272 1.17293 8.7651 1.12893 9.14976 1.20189ZM8.56777 2.39724C8.39542 2.48517 8.27927 2.65788 8.25648 2.86013C8.21998 3.18378 8.44369 3.46005 8.77226 3.49707C9.0959 3.53357 9.37218 3.30986 9.40919 2.98129C9.43244 2.77517 9.33923 2.56182 9.17477 2.44472C9.01941 2.33412 8.73513 2.31188 8.56777 2.39724ZM15.2815 6.43816V7.0244H8.4739C1.67995 7.0244 1.66596 7.02424 1.49998 6.94389C1.37921 6.88542 1.3116 6.81781 1.25313 6.69704C1.20885 6.60559 1.17262 6.48908 1.17262 6.43816C1.17262 6.38723 1.20869 6.27108 1.25278 6.18002C1.31 6.06179 1.37984 5.99121 1.49705 5.93321L1.66115 5.85199L8.47132 5.85196L15.2815 5.85192V6.43816ZM8.90123 8.18688L16.454 8.19786V9.38632V10.5748L15.2913 10.5898C14.2103 10.6038 14.1093 10.6111 13.855 10.6939C12.8976 11.0056 12.17 11.7394 11.8746 12.6914C11.7983 12.9371 11.7836 13.0698 11.7836 13.5121C11.7836 13.9545 11.7983 14.0871 11.8746 14.3329C12.17 15.2848 12.8976 16.0187 13.855 16.3303C14.1093 16.4132 14.2103 16.4205 15.2913 16.4344L16.454 16.4494V17.6384V18.8274H9.06014C1.67425 18.8274 1.66612 18.8273 1.49998 18.7469C1.37921 18.6884 1.3116 18.6208 1.25313 18.5C1.17309 18.3347 1.17262 18.3036 1.17262 13.2217V8.10961L1.26056 8.14275C1.3089 8.161 4.7472 8.18086 8.90123 8.18688ZM18.5107 11.8339C18.6324 11.8928 18.699 11.9599 18.759 12.0839C18.8381 12.2472 18.8406 12.3005 18.8298 13.5639C18.819 14.8173 18.815 14.8791 18.7379 14.9823C18.6936 15.0416 18.6088 15.1264 18.5494 15.1707C18.4444 15.2492 18.391 15.2516 16.5244 15.2622C15.3239 15.269 14.5257 15.2579 14.389 15.2326C13.656 15.0971 13.0913 14.5157 12.9676 13.7692C12.8811 13.2472 13.0734 12.6666 13.4616 12.2785C13.6905 12.0496 14.0487 11.8544 14.3477 11.7957C14.4421 11.7771 15.38 11.7601 16.4318 11.7577C18.2876 11.7535 18.3493 11.7558 18.5107 11.8339ZM14.4302 12.9887C14.2578 13.0766 14.1417 13.2493 14.1189 13.4516C14.0824 13.7752 14.3061 14.0515 14.6347 14.0885C14.9583 14.125 15.2346 13.9013 15.2716 13.5727C15.2949 13.3666 15.2016 13.1532 15.0372 13.0361C14.8818 12.9255 14.5975 12.9033 14.4302 12.9887Z" />
</svg>
